<svg width="60" height="60" viewBox="0 0 60 60" fill="none" xmlns="http://www.w3.org/2000/svg">
<g clip-path="url(#clip0_350_15)">
<path d="M30 0C13.4297 0 0 13.4297 0 30C0 46.5703 13.4297 60 30 60C46.5703 60 60 46.5703 60 30C60 13.4297 46.5703 0 30 0ZM48.7266 48.7148C46.2891 51.1523 43.4648 53.0625 40.3125 54.3867C37.0547 55.7695 33.5859 56.4609 30 56.4609C26.4258 56.4609 22.957 55.7578 19.6875 54.3867C16.5352 53.0508 13.6992 51.1406 11.2734 48.7148C8.83594 46.2773 6.92578 43.4531 5.60156 40.3008C4.21875 37.043 3.51562 33.5742 3.51562 30C3.51562 26.4258 4.21875 22.957 5.58984 19.6875C6.92578 16.5352 8.83594 13.6992 11.2617 11.2734C13.7109 8.83594 16.5352 6.92578 19.6875 5.58984C22.957 4.21875 26.4258 3.51562 30 3.51562C33.5742 3.51562 37.043 4.21875 40.3125 5.58984C43.4648 6.92578 46.3008 8.83594 48.7266 11.2617C51.1641 13.6992 53.0742 16.5234 54.3984 19.6758C55.7813 22.9336 56.4727 26.4023 56.4727 29.9883C56.4727 33.5625 55.7695 37.0312 54.3984 40.3008C53.0625 43.4531 51.1523 46.2891 48.7266 48.7148Z" fill="black"/>
<path d="M39.2109 15H20.8125C17.6133 15 15.0117 17.6016 15.0117 20.8008V26.9297V39.2109C15.0117 42.4102 17.6133 45.0117 20.8125 45.0117H39.2109C42.4102 45.0117 45.0117 42.4102 45.0117 39.2109V26.918V20.7891C45 17.6016 42.3984 15 39.2109 15ZM40.875 18.457H41.543V19.1133V23.543L36.4687 23.5547L36.457 18.4688L40.875 18.457ZM25.7227 26.918C26.6836 25.5938 28.2422 24.7148 30 24.7148C31.7578 24.7148 33.3164 25.582 34.2773 26.918C34.9102 27.7852 35.2734 28.8516 35.2734 30C35.2734 32.9062 32.9063 35.2852 29.9883 35.2852C27.0703 35.2852 24.7266 32.9062 24.7266 30C24.7266 28.8516 25.1016 27.7852 25.7227 26.918ZM42.082 39.1992C42.082 40.7812 40.793 42.0703 39.2109 42.0703H20.8125C19.2305 42.0703 17.9414 40.7812 17.9414 39.1992V26.918H22.418C22.0312 27.8672 21.8086 28.9102 21.8086 30C21.8086 34.5234 25.4883 38.2031 30.0117 38.2031C34.5352 38.2031 38.2148 34.5234 38.2148 30C38.2148 28.9102 37.9922 27.8672 37.6055 26.918H42.082V39.1992Z" fill="black"/>
</g>
<defs>
<clipPath id="clip0_350_15">
<rect width="60" height="60" fill="white"/>
</clipPath>
</defs>
</svg>
