<svg width="60" height="60" viewBox="0 0 60 60" fill="none" xmlns="http://www.w3.org/2000/svg">
<path d="M30 50C32.6522 50 35.1957 48.9464 37.0711 47.0711C38.9464 45.1957 40 42.6522 40 40L40 20C40 17.3478 38.9464 14.8043 37.0711 12.9289C35.1957 11.0536 32.6522 10 30 10C27.3478 10 24.8043 11.0536 22.9289 12.9289C21.0536 14.8043 20 17.3478 20 20V40C20 42.6522 21.0536 45.1957 22.9289 47.0711C24.8043 48.9464 27.3478 50 30 50ZM30 55C26.0218 55 22.2064 53.4196 19.3934 50.6066C16.5804 47.7936 15 43.9782 15 40V20C15 16.0218 16.5804 12.2064 19.3934 9.3934C22.2064 6.58035 26.0218 5 30 5C33.9782 5 37.7936 6.58035 40.6066 9.3934C43.4196 12.2064 45 16.0218 45 20L45 40C45 43.9782 43.4196 47.7936 40.6066 50.6066C37.7936 53.4196 33.9782 55 30 55ZM27.5 35C27.5 34.337 27.7634 33.7011 28.2322 33.2322C28.7011 32.7634 29.337 32.5 30 32.5C30.663 32.5 31.2989 32.7634 31.7678 33.2322C32.2366 33.7011 32.5 34.337 32.5 35V42.5C32.5 43.163 32.2366 43.7989 31.7678 44.2678C31.2989 44.7366 30.663 45 30 45C29.337 45 28.7011 44.7366 28.2322 44.2678C27.7634 43.7989 27.5 43.163 27.5 42.5L27.5 35Z" fill="#214AE7"/>
</svg>
