<svg width="25" height="25" viewBox="0 0 25 25" fill="none" xmlns="http://www.w3.org/2000/svg">
<g clip-path="url(#clip0_437_63)">
<path d="M10.0771 14.0225L21.0771 3.02246" stroke="#D5E739" stroke-width="1.5" stroke-linecap="round" stroke-linejoin="round"/>
<path d="M21.0767 3.02246L14.5767 21.0225C14.5329 21.1182 14.4624 21.1993 14.3738 21.2562C14.2851 21.3131 14.182 21.3433 14.0767 21.3433C13.9714 21.3433 13.8683 21.3131 13.7797 21.2562C13.691 21.1993 13.6206 21.1182 13.5767 21.0225L10.0767 14.0225L3.07673 10.5225C2.98099 10.4786 2.89986 10.4081 2.84298 10.3195C2.7861 10.2309 2.75586 10.1278 2.75586 10.0225C2.75586 9.91715 2.7861 9.81404 2.84298 9.72541C2.89986 9.63678 2.98099 9.56634 3.07673 9.52246L21.0767 3.02246Z" stroke="#D5E739" stroke-width="1.5" stroke-linecap="round" stroke-linejoin="round"/>
</g>
<defs>
<clipPath id="clip0_437_63">
<rect width="24" height="24" fill="white" transform="translate(0.0771484 0.0224609)"/>
</clipPath>
</defs>
</svg>
