<svg width="60" height="60" viewBox="0 0 60 60" fill="none" xmlns="http://www.w3.org/2000/svg">
<g clip-path="url(#clip0_350_19)">
<path d="M30 0C13.4297 0 0 13.4297 0 30C0 46.5703 13.4297 60 30 60C46.5703 60 60 46.5703 60 30C60 13.4297 46.5703 0 30 0ZM48.7266 48.7148C46.2891 51.1523 43.4648 53.0625 40.3125 54.3867C37.0547 55.7695 33.5859 56.4609 30 56.4609C26.4258 56.4609 22.957 55.7578 19.6875 54.3867C16.5352 53.0508 13.6992 51.1406 11.2734 48.7148C8.83594 46.2773 6.92578 43.4531 5.60156 40.3008C4.21875 37.043 3.51562 33.5742 3.51562 30C3.51562 26.4258 4.21875 22.957 5.58984 19.6875C6.92578 16.5352 8.83594 13.6992 11.2617 11.2734C13.7109 8.83594 16.5352 6.92578 19.6875 5.58984C22.957 4.21875 26.4258 3.51562 30 3.51562C33.5742 3.51562 37.043 4.21875 40.3125 5.58984C43.4648 6.92578 46.3008 8.83594 48.7266 11.2617C51.1641 13.6992 53.0742 16.5234 54.3984 19.6758C55.7813 22.9336 56.4727 26.4023 56.4727 29.9883C56.4727 33.5625 55.7695 37.0312 54.3984 40.3008C53.0625 43.4531 51.1523 46.2891 48.7266 48.7148Z" fill="black"/>
<path d="M44.2148 19.6992C43.0195 20.4023 41.707 20.918 40.3008 21.1992C39.1758 20.0039 37.5703 19.2539 35.8008 19.2539C32.4023 19.2539 29.6367 22.0195 29.6367 25.418C29.6367 25.8984 29.6836 26.3672 29.8008 26.8242C24.6797 26.5664 20.1328 24.1172 17.0977 20.3789C16.5703 21.293 16.2656 22.3477 16.2656 23.4844C16.2656 25.6172 17.3555 27.5039 19.0078 28.6172C18 28.582 17.0508 28.3008 16.2187 27.8438V27.9141C16.2187 30.9023 18.3398 33.3984 21.1641 33.9609C20.6484 34.1016 20.0977 34.1836 19.5352 34.1836C19.1367 34.1836 18.75 34.1484 18.375 34.0781C19.1602 36.5273 21.4336 38.3086 24.1289 38.3555C22.0195 40.0078 19.3594 40.9922 16.4766 40.9922C15.9844 40.9922 15.4922 40.9688 15 40.9102C17.7305 42.6563 20.9648 43.6758 24.4453 43.6758C35.7891 43.6758 41.9883 34.2773 41.9883 26.1328C41.9883 25.8633 41.9883 25.5938 41.9766 25.3359C43.1836 24.457 44.2266 23.3789 45.0469 22.1367C43.9453 22.6289 42.75 22.957 41.5078 23.1094C42.7852 22.3477 43.7578 21.1406 44.2148 19.6992Z" fill="black"/>
</g>
<defs>
<clipPath id="clip0_350_19">
<rect width="60" height="60" fill="white"/>
</clipPath>
</defs>
</svg>
